<?xml version="1.0" standalone="no"?>
<!DOCTYPE svg PUBLIC "-//W3C//DTD SVG 20010904//EN"
 "http://www.w3.org/TR/2001/REC-SVG-20010904/DTD/svg10.dtd">
<svg version="1.0" xmlns="http://www.w3.org/2000/svg"
 width="64.000000pt" height="64.000000pt" viewBox="0 0 64.000000 64.000000"
 preserveAspectRatio="xMidYMid meet">

<g transform="translate(0.000000,64.000000) scale(0.100000,-0.100000)"
fill="#ffffff" stroke="none">
<path d="M267 498 c-35 -9 -62 -31 -113 -89 -12 -13 -34 -32 -49 -43 -36 -25
-57 -78 -49 -122 13 -69 75 -114 157 -114 23 0 27 4 27 30 0 29 -2 30 -43 30
-33 0 -49 6 -65 23 -42 44 -18 118 43 133 14 3 25 13 25 21 0 8 16 31 35 50
34 34 38 35 91 31 70 -6 111 -42 122 -108 6 -38 12 -46 32 -48 35 -5 50 -20
50 -51 0 -39 -18 -51 -77 -51 -52 0 -53 0 -53 -30 0 -29 2 -30 46 -30 61 0
109 24 128 65 9 18 16 38 16 45 0 27 -32 77 -59 93 -16 9 -32 29 -36 44 -22
89 -132 148 -228 121z"/>
<path d="M267 307 l-49 -62 36 -3 c35 -3 35 -3 38 -55 3 -48 5 -52 28 -52 23
0 25 4 28 52 3 52 3 52 38 55 l36 3 -49 62 c-26 34 -50 62 -53 62 -3 0 -27
-28 -53 -62z"/>
</g>
</svg>
